<svg width="1920" height="1080" viewBox="0 0 1920 1080" fill="none" xmlns="http://www.w3.org/2000/svg">
  <defs>
    <linearGradient id="gradient1" x1="0%" y1="0%" x2="100%" y2="100%">
      <stop offset="0%" style="stop-color:#667eea;stop-opacity:1" />
      <stop offset="50%" style="stop-color:#764ba2;stop-opacity:1" />
      <stop offset="100%" style="stop-color:#f093fb;stop-opacity:1" />
    </linearGradient>
    <pattern id="grid" width="60" height="60" patternUnits="userSpaceOnUse">
      <path d="M 60 0 L 0 0 0 60" fill="none" stroke="rgba(255,255,255,0.1)" stroke-width="1"/>
    </pattern>
  </defs>
  
  <!-- Background gradient -->
  <rect width="1920" height="1080" fill="url(#gradient1)"/>
  
  <!-- Grid overlay -->
  <rect width="1920" height="1080" fill="url(#grid)"/>
  
  <!-- Floating service icons -->
  <g opacity="0.1">
    <!-- Wrench -->
    <circle cx="200" cy="150" r="40" fill="white"/>
    <path d="M185 135 L215 165 M215 135 L185 165" stroke="url(#gradient1)" stroke-width="4" stroke-linecap="round"/>
    
    <!-- Lightning bolt -->
    <circle cx="1700" cy="200" r="35" fill="white"/>
    <path d="M1690 185 L1705 200 L1695 200 L1710 215 L1695 200 L1705 200 Z" fill="url(#gradient1)"/>
    
    <!-- Book -->
    <circle cx="300" cy="800" r="38" fill="white"/>
    <rect x="285" y="785" width="30" height="20" fill="url(#gradient1)" rx="2"/>
    <line x1="290" y1="790" x2="310" y2="790" stroke="white" stroke-width="1"/>
    <line x1="290" y1="795" x2="310" y2="795" stroke="white" stroke-width="1"/>
    
    <!-- Hammer -->
    <circle cx="1600" cy="850" r="42" fill="white"/>
    <rect x="1590" y="835" width="20" height="8" fill="url(#gradient1)" rx="4"/>
    <rect x="1598" y="843" width="4" height="20" fill="url(#gradient1)"/>
    
    <!-- Paint brush -->
    <circle cx="150" cy="500" r="36" fill="white"/>
    <rect x="140" y="485" width="6" height="25" fill="url(#gradient1)" rx="3"/>
    <ellipse cx="143" cy="482" rx="4" ry="6" fill="url(#gradient1)"/>
    
    <!-- Cleaning spray -->
    <circle cx="1750" cy="600" r="40" fill="white"/>
    <rect x="1740" y="590" width="8" height="15" fill="url(#gradient1)" rx="4"/>
    <rect x="1745" y="585" width="6" height="8" fill="url(#gradient1)" rx="3"/>
    <circle cx="1752" cy="588" r="1" fill="white"/>
    <circle cx="1755" cy="590" r="1" fill="white"/>
    <circle cx="1758" cy="592" r="1" fill="white"/>
  </g>
  
  <!-- Decorative shapes -->
  <g opacity="0.15">
    <circle cx="100" cy="300" r="80" fill="none" stroke="white" stroke-width="2"/>
    <circle cx="1820" cy="400" r="60" fill="none" stroke="white" stroke-width="2"/>
    <circle cx="400" cy="950" r="100" fill="none" stroke="white" stroke-width="1"/>
    <circle cx="1500" cy="100" r="70" fill="none" stroke="white" stroke-width="1"/>
  </g>
  
  <!-- Subtle geometric patterns -->
  <g opacity="0.08">
    <polygon points="800,50 850,100 800,150 750,100" fill="white"/>
    <polygon points="1200,900 1250,950 1200,1000 1150,950" fill="white"/>
    <polygon points="50,700 100,750 50,800 0,750" fill="white"/>
    <polygon points="1870,300 1920,350 1870,400 1820,350" fill="white"/>
  </g>
</svg>
